<svg width="40" height="41" viewBox="0 0 40 41" fill="none" xmlns="http://www.w3.org/2000/svg">
<path d="M20.0935 15.4825C19.118 15.4825 18.1643 15.7718 17.3532 16.3138C16.5421 16.8557 15.9099 17.6261 15.5365 18.5274C15.1632 19.4287 15.0655 20.4204 15.2559 21.3772C15.4462 22.334 15.916 23.2129 16.6058 23.9027C17.2956 24.5925 18.1744 25.0623 19.1312 25.2526C20.088 25.4429 21.0798 25.3452 21.9811 24.9719C22.8824 24.5986 23.6527 23.9664 24.1947 23.1552C24.7367 22.3441 25.0259 21.3905 25.0259 20.4149C25.0259 19.7672 24.8984 19.1258 24.6505 18.5274C24.4026 17.9289 24.0393 17.3852 23.5813 16.9272C23.1232 16.4692 22.5795 16.1058 21.9811 15.858C21.3826 15.6101 20.7412 15.4825 20.0935 15.4825ZM39.8431 10.6097C39.8326 9.07385 39.5498 7.55198 39.0078 6.11488C38.6086 5.06328 37.9909 4.10828 37.1955 3.31291C36.4002 2.51754 35.4452 1.89988 34.3936 1.50067C32.9565 0.958632 31.4346 0.675808 29.8987 0.665345C27.333 0.526123 26.5773 0.526123 20.0935 0.526123C13.6098 0.526123 12.854 0.526123 10.2883 0.665345C8.75244 0.675808 7.23057 0.958632 5.79347 1.50067C4.74186 1.89988 3.78687 2.51754 2.9915 3.31291C2.19613 4.10828 1.57847 5.06328 1.17926 6.11488C0.637221 7.55198 0.354397 9.07385 0.343933 10.6097C0.204712 13.1754 0.204712 13.9312 0.204712 20.4149C0.204712 26.8987 0.204712 27.6544 0.343933 30.2201C0.365342 31.7614 0.647783 33.2879 1.17926 34.7349C1.5767 35.7817 2.19385 36.7311 2.98914 37.5193C3.7811 38.3194 4.73814 38.9371 5.79347 39.3292C7.23057 39.8712 8.75244 40.154 10.2883 40.1645C12.854 40.3037 13.6098 40.3037 20.0935 40.3037C26.5773 40.3037 27.333 40.3037 29.8987 40.1645C31.4346 40.154 32.9565 39.8712 34.3936 39.3292C35.4489 38.9371 36.4059 38.3194 37.1979 37.5193C37.9932 36.7311 38.6103 35.7817 39.0078 34.7349C39.5493 33.2907 39.8321 31.7624 39.8431 30.2201C39.9823 27.6544 39.9823 26.8987 39.9823 20.4149C39.9823 13.9312 39.9823 13.1754 39.8431 10.6097ZM34.7913 26.5208C34.7275 27.7481 34.4656 28.9571 34.0157 30.1008C33.6296 31.0548 33.0556 31.9215 32.3278 32.6492C31.6001 33.377 30.7334 33.951 29.7794 34.3371C28.6248 34.7619 27.4092 34.997 26.1795 35.0332H14.0075C12.7779 34.997 11.5622 34.7619 10.4077 34.3371C9.42139 33.9706 8.53071 33.3859 7.80223 32.6266C7.0816 31.9131 6.52506 31.0512 6.17135 30.1008C5.74485 28.9475 5.51623 27.7304 5.49513 26.5009V14.329C5.51623 13.0995 5.74485 11.8824 6.17135 10.7291C6.53787 9.7428 7.12258 8.85213 7.88179 8.12365C8.59845 7.4069 9.4595 6.85095 10.4077 6.49276C11.5622 6.06795 12.7779 5.83287 14.0075 5.79666H26.1795C27.4092 5.83287 28.6248 6.06795 29.7794 6.49276C30.7656 6.85928 31.6563 7.44399 32.3848 8.2032C33.1054 8.91671 33.662 9.77866 34.0157 10.7291C34.4405 11.8836 34.6756 13.0993 34.7118 14.329V20.4149C34.7118 24.512 34.851 24.9297 34.7913 26.5009V26.5208ZM31.6091 11.7235C31.3723 11.0811 30.999 10.4977 30.5148 10.0135C30.0307 9.52936 29.4472 9.156 28.8048 8.9192C27.9227 8.61343 26.9936 8.46532 26.0602 8.48164H14.1269C13.1887 8.49081 12.2595 8.66588 11.3822 8.99875C10.7496 9.2248 10.1724 9.58291 9.68885 10.0493C9.20534 10.5156 8.82663 11.0796 8.5779 11.7036C8.28907 12.5894 8.14796 13.5167 8.16023 14.4483V26.3816C8.17995 27.3187 8.35468 28.2461 8.67734 29.1262C8.91414 29.7687 9.2875 30.3521 9.77165 30.8362C10.2558 31.3204 10.8392 31.6937 11.4817 31.9305C12.3303 32.2426 13.2232 32.4172 14.1269 32.4476H26.0602C26.9984 32.4385 27.9276 32.2634 28.8048 31.9305C29.4472 31.6937 30.0307 31.3204 30.5148 30.8362C30.999 30.3521 31.3723 29.7687 31.6091 29.1262C31.942 28.249 32.1171 27.3198 32.1262 26.3816V14.4483C32.1268 13.5091 31.9514 12.5782 31.6091 11.7036V11.7235ZM20.0935 28.0124C19.0967 28.0124 18.1097 27.8158 17.1891 27.4337C16.2684 27.0517 15.4322 26.4917 14.7283 25.786C14.0244 25.0802 13.4666 24.2425 13.087 23.3209C12.7073 22.3992 12.5133 21.4117 12.5159 20.4149C12.5159 18.9114 12.962 17.4417 13.7977 16.1919C14.6334 14.9421 15.8211 13.9683 17.2106 13.3938C18.6 12.8194 20.1286 12.6701 21.6029 12.9649C23.0772 13.2596 24.431 13.9852 25.4927 15.0497C26.5544 16.1143 27.2765 17.4699 27.5674 18.945C27.8583 20.42 27.705 21.9483 27.1269 23.3362C26.5488 24.7241 25.5719 25.9093 24.3199 26.7417C23.0679 27.5741 21.597 28.0164 20.0935 28.0124ZM28.049 14.3091C27.6094 14.2625 27.2025 14.0549 26.9068 13.7263C26.6111 13.3976 26.4475 12.9711 26.4475 12.529C26.4475 12.0869 26.6111 11.6604 26.9068 11.3318C27.2025 11.0031 27.6094 10.7955 28.049 10.749C28.4887 10.7955 28.8956 11.0031 29.1913 11.3318C29.487 11.6604 29.6506 12.0869 29.6506 12.529C29.6506 12.9711 29.487 13.3976 29.1913 13.7263C28.8956 14.0549 28.4887 14.2625 28.049 14.3091Z" fill="#A8F9FF"/>
</svg>
