<svg width="240" height="58" viewBox="0 0 240 58" fill="none" xmlns="http://www.w3.org/2000/svg">
<mask id="mask0_161_107" style="mask-type:alpha" maskUnits="userSpaceOnUse" x="0" y="0" width="240" height="58">
<path d="M9.02656 2.13333C1.8538 4.06666 -2.02336 12.4 1.07837 19.1333C2.6777 22.6667 5.53711 20.2667 5.53711 15.3333C5.53711 9.66666 8.29959 7.4 15.1331 7.33333H19.8341L19.2526 12.3333C18.9133 15.0667 18.6225 18.3333 18.6225 19.6C18.6225 21.1333 16.8778 22.9333 13.7761 24.8C1.61148 32 -1.05407 50 10.0928 50C16.7809 50 20.9488 41.3333 23.4205 21.9333C24.0506 17.2 25.2622 11.4 26.0861 9C27.9762 3.8 27.6854 3.33333 22.3058 1.86666C17.2655 0.533331 14.6484 0.599997 9.02656 2.13333ZM17.1201 31.6667C15.6662 38.2667 13.4853 43.2667 11.7406 44.0667C6.89412 46.1333 6.65179 39.3333 11.4013 33.1333C15.5208 27.8667 18.1379 27.1333 17.1201 31.6667Z" fill="black"/>
<path d="M83.9517 19.9333C75.2281 25.1333 75.8097 52.8 84.7272 57.2C90.0583 59.8 96.601 52.6667 95.9225 44.9333C95.5832 40.5333 93.887 40.7333 92.7723 45.3333C88.7497 62 78.1845 49 81.577 31.6C83.8063 20.2 92.2876 20.4667 92.2876 31.9333C92.2876 34.0667 92.8208 35.3333 93.7416 35.3333C94.8563 35.3333 95.1955 33.6 95.1955 27.4667C95.1955 20.2 95.0501 19.6 93.0146 19.7333C91.803 19.8 89.9613 19.4667 88.8951 19C87.8289 18.5333 85.5995 18.9333 83.9517 19.9333Z" fill="black"/>
<path d="M97.6681 20.6C97.3288 21.2667 97.9588 22.5333 99.0251 23.3333C102.127 25.6 102.03 52 98.9766 53.0667C95.5841 54.3333 97.9104 56.6667 102.514 56.6667C105.713 56.6667 106.828 56.1333 106.828 54.6667C106.828 53.5333 106.149 52.6667 105.325 52.6667C103.048 52.6667 103.726 35.5333 106.101 33.4667C109.396 30.6 111.141 34 111.48 43.8C111.723 51.0667 111.48 52.6667 110.269 52.6667C109.445 52.6667 108.766 53.5333 108.766 54.6C108.766 56.1333 110.657 56.5333 118.459 56.5333C127.861 56.5333 131.932 54.3333 126.214 52.2667C122.288 50.8667 124.033 32.6667 128.152 32.6667C130.43 32.6667 131.739 35.2667 130.091 36.6667C128.685 37.8667 129.461 42 131.06 42C133.289 42 134.307 35.6 132.659 32.1333C131.254 29.2 130.479 28.8667 124.76 28.9333C118.508 28.9333 115.406 30.8667 119.332 32.2667C122.143 33.2667 122.482 52.1333 119.671 53C115.358 54.2667 114.582 52.8 114.582 43.4667C114.582 31.6 112.886 28.0667 107.652 29.0667L103.92 29.7333V24.5333C103.92 19.3333 99.4612 16.5333 97.6681 20.6Z" fill="black"/>
<path d="M175.308 20.2C173.903 22.2 174.726 26 176.568 26C179.04 26 180.009 23.7333 178.507 21.2667C177.247 19.1333 176.326 18.8667 175.308 20.2Z" fill="black"/>
<path d="M197.941 21.2C197.941 22.2 198.813 23.3333 199.879 23.7333C202.836 24.8 202.836 50.4667 199.831 52.6667C196.923 54.8667 198.474 56.6667 203.32 56.6667C206.519 56.6667 207.634 56.1333 207.634 54.6667C207.634 53.5333 207.004 52.6667 206.18 52.6667C204.968 52.6667 204.726 49.9333 204.726 36V19.3333H201.333C199.104 19.3333 197.941 19.9333 197.941 21.2Z" fill="black"/>
<path d="M31.8523 24.6667C25.6004 32.2 25.9881 44.6667 32.4824 44.6667C34.2271 44.6667 36.2142 43.9333 36.8442 43.0667C37.765 41.8 38.2497 41.8 39.1705 43.0667C40.6729 45.1333 44.0654 45.1333 45.6163 43C46.5855 41.6667 46.9733 41.7333 47.6033 43.1333C48.7664 45.6667 51.9651 44.4667 52.3528 41.3333C53.516 30.6667 57.9747 24.8667 57.1023 35.0667C56.133 46.6 60.5433 48.7333 62.8696 37.8667C64.1782 31.5333 66.456 27.5333 67.4737 29.7333C67.7645 30.4 67.5707 32.9333 67.086 35.3333C65.7775 41.5333 67.2799 44.6667 71.4963 44.6667C74.3557 44.6667 74.8403 44.2 74.8403 41.4667C74.8403 39.2667 74.3072 38.3333 73.1441 38.4667C71.7386 38.6 71.4963 37.8 71.8355 34C73.0471 19.4 70.8662 16.5333 65.3413 25.2667C61.658 31 61.5126 31.0667 61.9972 26.1333C62.8211 18.7333 57.8778 19.1333 54.4368 26.8C51.9651 32.2667 50.8989 31.8667 52.4013 26C53.2736 22.6 53.1767 21.7333 51.8682 21.0667C49.7842 19.9333 47.7002 24.0667 47.7002 29.2667C47.7002 34 45.3739 39.3333 43.29 39.3333C41.6906 39.3333 41.4483 35.3333 42.7569 29.2C44.55 20.6 37.5712 17.7333 31.8523 24.6667ZM37.7165 31.4667C37.135 37.8 35.8749 40.0667 33.694 38.8667C31.61 37.8 31.8039 33.6667 34.1786 29.5333C37.135 24.4 38.3466 25.0667 37.7165 31.4667Z" fill="black"/>
<path d="M233.321 28.5334C223.87 30.6667 224.403 42.1334 234.096 45.2C236.228 45.9334 236.762 46.7334 236.519 49.0667C236.083 53.4667 229.783 53.3334 229.007 48.9334C228.086 43.6667 226.536 45.0667 226.245 51.3334L225.954 57.3334L230.51 57.6C241.899 58.2 243.595 43.6667 232.545 40.1334C230.413 39.4 229.88 38.6 230.122 36.2667C230.51 32.2 234.92 32.2 236.228 36.3334C237.731 41 238.652 39.8667 238.652 33.3334C238.652 30 238.312 27.4 237.925 27.5334C237.537 27.6 235.453 28.0667 233.321 28.5334Z" fill="black"/>
<path d="M136.925 32.2C132.854 39.4 135.083 55.6666 140.463 57.5333C148.556 60.3333 153.936 40.1333 147.49 31.2666C144.631 27.3333 139.445 27.8 136.925 32.2ZM145.648 34.7333C148.944 40.2 146.472 52.6666 142.11 52.6666C139.3 52.6666 137.846 49.1333 137.846 42.2C137.846 34.0666 142.547 29.6 145.648 34.7333Z" fill="black"/>
<path d="M151.802 30.2667C151.463 30.9333 152.142 31.8667 153.256 32.2667C155.098 32.9333 155.292 33.9333 155.292 42.6667C155.292 51.4 155.098 52.4 153.256 53.0667C149.864 54.3333 152.19 56.6667 156.794 56.6667C161.156 56.6667 162.901 53.8667 159.654 52.2C155.486 50 158.684 32 163.095 32.8667C166.051 33.4667 167.456 52.6667 164.549 52.6667C163.725 52.6667 163.046 53.5333 163.046 54.6667C163.046 56.3333 164.694 56.6667 172.254 56.6667C181.123 56.6667 184.661 54.6667 180.057 52.2C178.991 51.6667 178.555 48.6 178.361 40.4C178.07 29.4 178.07 29.3333 175.405 28.9333C173.514 28.6 172.739 29.0667 172.739 30.6C172.739 31.7333 173.418 32.6667 174.193 32.6667C175.356 32.6667 175.647 34.6667 175.647 42.7333V52.8667L172.497 52.4L169.347 52L169.056 41.6667C168.862 33.4667 168.426 31.1333 167.069 30.1333C164.888 28.4667 152.529 28.6 151.802 30.2667Z" fill="black"/>
<path d="M185.777 31.4C184.614 33.1333 183.838 36.8 183.596 42C182.723 58.1333 194.113 63.9333 197.408 49C198.378 44.6666 195.276 45 194.064 49.3333C192.901 53.4666 188.782 53.9333 187.328 50.0666C184.807 43.6666 187.231 32.6666 191.156 32.6666C193.531 32.6666 194.694 35.3333 192.998 36.8C191.883 37.7333 191.932 38.2666 193.24 40.1333C195.324 42.9333 196.972 41.4666 196.972 36.8C196.972 29.3333 189.509 25.7333 185.777 31.4Z" fill="black"/>
<path d="M211.608 31.2C206.035 38.8667 209.476 58 216.455 58C219.12 58 223.143 52.7333 223.143 49.2667C223.143 45.3333 221.592 44.9333 220.72 48.6667C219.654 53.2667 216.891 54.3333 214.032 51.2C209.428 46.2 210.639 43.3333 217.376 43.3333C224.258 43.3333 225.13 41.8 222.513 34.4C220.284 28.1333 214.953 26.6 211.608 31.2ZM220.187 35.2667C221.738 39.1333 221.544 39.3333 216.843 39.3333C213.886 39.3333 212.481 38.7333 212.481 37.6C212.481 32.6667 218.49 30.8667 220.187 35.2667Z" fill="black"/>
</mask>
<g mask="url(#mask0_161_107)">
<rect x="-0.635773" y="-4.07864" width="240.636" height="72" fill="url(#paint0_linear_161_107)"/>
</g>
<defs>
<linearGradient id="paint0_linear_161_107" x1="236.491" y1="82.4214" x2="-7.87709" y2="-1.9822" gradientUnits="userSpaceOnUse">
<stop offset="0.265625" stop-color="#A8F9FF"/>
<stop offset="0.432292" stop-color="#EFD5C8"/>
<stop offset="0.869792" stop-color="#FD9D6D"/>
</linearGradient>
</defs>
</svg>
